<?xml version="1.0" encoding="UTF-8" standalone="no"?>
<svg version="1.1" xmlns="http://www.w3.org/2000/svg" width="150px" height="157px">
<g>
<path style="fill:#000;stroke:#777" d="M 77,1 149,24 146,118 77,156 7,118 1,24 z" />
<path style="fill:#ec702d" d="M 3,27 22,35 23,65 5,56" />
<path style="fill:#ec702d" d="M 25,36 46,45 47,76 26,66" />
<path style="fill:#ec702d" d="M 49,46 74,55 74,88 50,77" />
<path style="fill:#ec702d" d="M 5,60 23,69 24,97 7,88" />
<path style="fill:#2c5da6" d="M 26,70 47,80 48,109 27,98" />
<path style="fill:#ec702d" d="M 50,81 74,92 74,122 51,110" />
<path style="fill:#ec702d" d="M 7,91 24,101 25,126 9,117" />
<path style="fill:#ec702d" d="M 27,102 48,113 48,138 28,127" />
<path style="fill:#ec702d" d="M 51,114 74,126 74,152 51,139" />
<path style="fill:#fff635" d="M 29,18 48,24 23,32 4,25" />
<path style="fill:#fff635" d="M 56,10 73,16 51,23 33,17" />
<path style="fill:#fff635" d="M 77,3 95,9 76,15 58,9" />
<path style="fill:#2c5da6" d="M 50,25 73,33 48,42 25,33" />
<path style="fill:#fff635" d="M 76,17 99,24 76,32 54,24" />
<path style="fill:#fff635" d="M 97,10 120,17 101,23 79,16" />
<path style="fill:#fff635" d="M 76,34 100,43 76,52 51,43" />
<path style="fill:#2c5da6" d="M 101,25 126,33 103,42 79,33" />
<path style="fill:#2c5da6" d="M 122,18 146,25 129,32 104,24" />
<path style="fill:#00b264" d="M 77,87 101,77 102,45 77,55" />
<path style="fill:#00b264" d="M 126,36 125,66 104,76 105,45" />
<path style="fill:#00b264" d="M 147,27 146,56 128,65 129,35" />
<path style="fill:#00b264" d="M 77,122 100,110 101,81 77,91" />
<path style="fill:#2c5da6" d="M 125,70 124,98 103,109 104,80" />
<path style="fill:#00b264" d="M 146,60 145,87 127,97 128,69" />
<path style="fill:#00b264" d="M 77,153 99,141 100,114 77,126" />
<path style="fill:#00b264" d="M 124,102 123,128 102,140 103,113" />
<path style="fill:#2c5da6" d="M 145,90 144,116 126,126 127,100" />
</g>
</svg>
